<svg width="69" height="35" viewBox="0 0 69 35" fill="none" xmlns="http://www.w3.org/2000/svg">
<g clip-path="url(#clip0_2168_10909)">
<g clip-path="url(#clip1_2168_10909)">
<path d="M43.5067 1.55671L42.2121 3.85831C42.1162 4.01814 42.1801 4.22592 42.3399 4.32182C42.4997 4.41772 42.7075 4.35379 42.8034 4.19396L44.0981 1.89236C44.194 1.73253 44.13 1.52475 43.9702 1.42885C43.8104 1.33295 43.6026 1.39688 43.5067 1.55671Z" fill="#00309E"/>
<path d="M42.7254 0.997143L41.4308 3.29874C41.3349 3.45857 41.3988 3.66635 41.5587 3.76225C41.7185 3.85815 41.9263 3.79422 42.0222 3.63439L43.3168 1.33279C43.4127 1.17296 43.3488 0.965177 43.189 0.869277C43.0291 0.773377 42.8213 0.83731 42.7254 0.997143Z" fill="#00309E"/>
<path d="M44.4022 2.00398L43.1076 4.30557C43.0117 4.46541 43.0756 4.67319 43.2354 4.76909C43.3953 4.86499 43.603 4.80105 43.6989 4.64122L44.9936 2.33963C45.0895 2.1798 45.0256 1.97201 44.8657 1.87611C44.7059 1.78021 44.4981 1.84415 44.4022 2.00398Z" fill="#00309E"/>
<path d="M41.9413 0.437573L40.6466 2.73917C40.5507 2.899 40.6147 3.10678 40.7745 3.20268C40.9343 3.29858 41.1421 3.23465 41.238 3.07482L42.5327 0.773222C42.6286 0.613389 42.5646 0.405606 42.4048 0.309707C42.2449 0.213807 42.0372 0.27774 41.9413 0.437573Z" fill="#00309E"/>
<path d="M45.3446 2.49981L44.0499 4.80141C43.954 4.96124 44.018 5.16902 44.1778 5.26492C44.3376 5.36082 44.5454 5.29689 44.6413 5.13706L45.936 2.83546C46.0319 2.67563 45.9679 2.46785 45.8081 2.37195C45.6323 2.29203 45.4245 2.33998 45.3446 2.49981Z" fill="#00309E"/>
<path d="M39.2077 3.34641C38.9839 3.63411 39.0319 4.06566 39.3356 4.28942C43.1875 7.26231 47.7907 8.84466 52.6656 8.84466C57.5405 8.84466 62.1437 7.2783 65.9797 4.30541C66.2674 4.08164 66.3313 3.65009 66.1076 3.36239C65.8838 3.07469 65.4523 3.01076 65.1646 3.23453C61.5523 6.01562 57.2369 7.48608 52.6656 7.48608C48.0944 7.48608 43.7629 6.01562 40.1507 3.21854C39.863 2.99478 39.4315 3.05871 39.2077 3.34641Z" fill="#00309E"/>
<path d="M9.90964 25.9474H7.32035V24.7487H7.28838C6.85683 25.404 5.76997 26.1712 4.4913 26.1712C1.79013 26.1712 0 24.2212 0 21.4561C0 18.9148 1.58235 16.5812 4.17164 16.5812C5.33842 16.5812 6.42528 16.9009 7.06461 17.78H7.09658V11.7383H9.90964V25.9474ZM5.0667 19.0746C3.66017 19.0746 2.81306 20.0176 2.81306 21.3922C2.81306 22.7668 3.66017 23.7098 5.0667 23.7098C6.47323 23.7098 7.32035 22.7668 7.32035 21.3922C7.32035 20.0016 6.47323 19.0746 5.0667 19.0746Z" fill="#00309E"/>
<path d="M19.9796 24.3649C19.0845 25.5157 17.5981 26.171 16.1276 26.171C13.3145 26.171 11.0449 24.285 11.0449 21.376C11.0449 18.4671 13.2986 16.5811 16.1276 16.5811C18.7649 16.5811 20.4111 18.4671 20.4111 21.376V22.2551H13.874C14.0977 23.326 14.9129 24.0293 15.9997 24.0293C16.9268 24.0293 17.5341 23.5658 18.0136 22.9264L19.9796 24.3649ZM17.5981 20.3531C17.6141 19.4101 16.8788 18.6269 15.8719 18.6269C14.6252 18.6269 13.9539 19.474 13.874 20.3531H17.5981Z" fill="#00309E"/>
<path d="M21.6566 16.8048H24.3578V18.0515H24.3898C24.7733 17.3323 25.6844 16.5811 27.059 16.5811C29.92 16.5811 30.4474 18.4671 30.4474 20.9125V25.9473H27.6184V21.4719C27.6184 20.417 27.6024 19.0585 26.1479 19.0585C24.6774 19.0585 24.4537 20.2093 24.4537 21.392V25.9473H21.6406V16.8048H21.6566Z" fill="#00309E"/>
<path d="M38.2001 19.0743H35.7227V22.1271C35.7227 23.1021 35.8346 23.8214 37.0653 23.8214C37.369 23.8214 37.9603 23.7894 38.2161 23.5656V25.9152C37.5927 26.1389 36.9054 26.2029 36.2342 26.2029C34.3481 26.2029 32.9096 25.4357 32.9096 23.4378V19.0903H31.1035V16.8367H32.9096V14.1035H35.7227V16.8047H38.2001V19.0743Z" fill="#00309E"/>
<path d="M45.2646 24.7961H45.2327C44.6093 25.7711 43.4905 26.1707 42.3397 26.1707C40.6295 26.1707 39.0791 25.1957 39.0791 23.3576C39.0791 20.1929 42.9151 20.145 45.2646 20.145C45.2646 19.154 44.4335 18.5147 43.4585 18.5147C42.5315 18.5147 41.7643 18.9302 41.1569 19.6015L39.6545 18.0671C40.6934 17.0922 42.1958 16.5967 43.6823 16.5967C46.9748 16.5967 47.8539 18.2749 47.8539 21.3117V25.9629H45.2646V24.7961ZM44.5774 21.9511C43.7143 21.9511 41.7963 22.031 41.7963 23.2617C41.7963 23.933 42.5155 24.2527 43.1389 24.2527C44.2417 24.2527 45.2806 23.6773 45.2806 22.5425V21.9351H44.5774V21.9511Z" fill="#00309E"/>
<path d="M49.1963 13.0322H52.0093V25.9627H49.1963V13.0322Z" fill="#00309E"/>
<path d="M55.03 12.2969C55.925 12.2969 56.6603 13.0321 56.6603 13.9272C56.6603 14.8222 55.925 15.5575 55.03 15.5575C54.1349 15.5575 53.3997 14.8222 53.3997 13.9272C53.3837 13.0321 54.1189 12.2969 55.03 12.2969ZM53.6075 16.8042H56.4205V25.9466H53.6075V16.8042Z" fill="#00309E"/>
<path d="M63.7246 24.7961H63.6926C63.0693 25.7711 61.9504 26.1707 60.7997 26.1707C59.0894 26.1707 57.5391 25.1957 57.5391 23.3576C57.5391 20.1929 61.375 20.145 63.7246 20.145C63.7246 19.154 62.8935 18.5147 61.9185 18.5147C60.9915 18.5147 60.2243 18.9302 59.6169 19.6015L58.1145 18.0671C59.1534 17.0922 60.6558 16.5967 62.1422 16.5967C65.4348 16.5967 66.3139 18.2749 66.3139 21.3117V25.9629H63.7246V24.7961ZM63.0373 21.9511C62.1742 21.9511 60.2562 22.031 60.2562 23.2617C60.2562 23.933 60.9755 24.2527 61.5988 24.2527C62.7017 24.2527 63.7406 23.6773 63.7406 22.5425V21.9351H63.0373V21.9511Z" fill="#00309E"/>
<path d="M68.297 24.6367C68.6806 24.6367 69.0003 24.9564 69.0003 25.34C69.0003 25.7236 68.6806 26.0432 68.297 26.0432C67.9134 26.0432 67.5938 25.7236 67.5938 25.34C67.5938 24.9564 67.9134 24.6367 68.297 24.6367ZM68.297 25.9314C68.6167 25.9314 68.8724 25.6756 68.8724 25.356C68.8724 25.0363 68.6167 24.7806 68.297 24.7806C67.9773 24.7806 67.7216 25.0363 67.7216 25.356C67.7216 25.6756 67.9773 25.9314 68.297 25.9314ZM68.0253 24.9404H68.345C68.5368 24.9404 68.6327 25.0203 68.6327 25.1801C68.6327 25.324 68.5527 25.3879 68.4409 25.4039L68.6486 25.7396H68.4888L68.281 25.4039H68.1691V25.7396H68.0253V24.9404ZM68.1691 25.292H68.281C68.3769 25.292 68.4728 25.292 68.4728 25.1801C68.4728 25.0683 68.3769 25.0683 68.281 25.0683H68.1691V25.292Z" fill="#00309E"/>
<path d="M68.297 30.1191C68.6806 30.1191 69.0003 30.4388 69.0003 30.8224C69.0003 31.206 68.6806 31.5257 68.297 31.5257C67.9134 31.5257 67.5938 31.206 67.5938 30.8224C67.5938 30.4388 67.9134 30.1191 68.297 30.1191ZM68.297 31.4138C68.6167 31.4138 68.8724 31.1581 68.8724 30.8384C68.8724 30.5187 68.6167 30.263 68.297 30.263C67.9773 30.263 67.7216 30.5187 67.7216 30.8384C67.7216 31.1581 67.9773 31.4138 68.297 31.4138ZM68.0253 30.4228H68.345C68.5368 30.4228 68.6327 30.5027 68.6327 30.6626C68.6327 30.8064 68.5527 30.8704 68.4409 30.8863L68.6486 31.222H68.4888L68.281 30.8863H68.1691V31.222H68.0253V30.4228ZM68.1691 30.7745H68.281C68.3769 30.7745 68.4728 30.7745 68.4728 30.6626C68.4728 30.5507 68.3769 30.5507 68.281 30.5507H68.1691V30.7745Z" fill="#00309E"/>
<path d="M10.0423 34.4455V32.6899H10.0172C9.91686 32.8906 9.79145 33.016 9.59081 33.0912C9.39018 33.1665 9.16446 33.2166 8.93874 33.2166C8.66286 33.2166 8.43714 33.1665 8.26158 33.0661C8.06095 32.9658 7.91046 32.8404 7.78506 32.6649C7.65967 32.5144 7.55935 32.3137 7.48411 32.088C7.40887 31.8623 7.38379 31.6366 7.38379 31.4109C7.38379 31.1601 7.40887 30.9343 7.48411 30.7337C7.55935 30.508 7.63459 30.3324 7.78506 30.1819C7.91046 30.0315 8.08603 29.9061 8.26158 29.8058C8.46222 29.7054 8.68794 29.6553 8.93874 29.6553C9.03906 29.6553 9.1143 29.6553 9.21462 29.6804C9.31494 29.7054 9.41526 29.7305 9.51558 29.7807C9.6159 29.8308 9.71621 29.881 9.79145 29.9562C9.89177 30.0315 9.96702 30.1067 10.0172 30.207H10.0423V29.7556H10.594V34.4706H10.0423V34.4455ZM8.03586 31.9375C8.08602 32.088 8.13618 32.2134 8.2365 32.3388C8.31174 32.4642 8.43714 32.5645 8.56254 32.6147C8.68794 32.6899 8.8635 32.715 9.03906 32.715C9.2397 32.715 9.39018 32.6899 9.51558 32.6147C9.64098 32.5395 9.76637 32.4391 9.84161 32.3137C9.91685 32.1883 9.99209 32.0629 10.0172 31.9125C10.0423 31.762 10.0673 31.6115 10.0673 31.4359C10.0673 31.2604 10.0423 31.1099 10.0172 30.9594C9.96702 30.8089 9.91685 30.6585 9.84161 30.5581C9.76637 30.4327 9.64098 30.3324 9.51558 30.2823C9.39018 30.207 9.21462 30.1819 9.01398 30.1819C8.81334 30.1819 8.66286 30.207 8.53746 30.2823C8.41206 30.3575 8.31174 30.4578 8.21142 30.5832C8.13618 30.7086 8.08602 30.8591 8.03586 31.0096C8.01078 31.1601 7.9857 31.3356 7.9857 31.4861C7.9857 31.6366 7.9857 31.7871 8.03586 31.9375Z" fill="#00309E"/>
<path d="M13.7793 33.142V32.5902H13.7543C13.6289 32.7909 13.4784 32.9664 13.3028 33.0668C13.1273 33.1671 12.9015 33.2172 12.6507 33.2172C12.425 33.2172 12.2495 33.1922 12.099 33.1169C11.9485 33.0668 11.8231 32.9664 11.7479 32.8661C11.6475 32.7658 11.5974 32.6153 11.5472 32.4648C11.5221 32.3144 11.4971 32.1388 11.4971 31.9632V29.7311H12.0488V32.0385C12.0488 32.2391 12.099 32.4147 12.2244 32.5401C12.3498 32.6655 12.5253 32.7156 12.726 32.7156C12.9015 32.7156 13.052 32.6906 13.1774 32.6404C13.3028 32.5902 13.4031 32.515 13.4784 32.4147C13.5536 32.3144 13.6289 32.214 13.6539 32.0636C13.7041 31.9382 13.7041 31.7877 13.7041 31.6372V29.7061H14.2559V33.142H13.7793Z" fill="#00309E"/>
<path d="M17.5656 32.9157C17.3149 33.1163 16.9888 33.2166 16.6126 33.2166C16.3367 33.2166 16.111 33.1665 15.9104 33.0912C15.7097 32.9909 15.5342 32.8906 15.4088 32.715C15.2834 32.5645 15.158 32.3639 15.1078 32.1382C15.0326 31.9125 15.0075 31.6867 14.9824 31.4109C14.9824 31.1601 15.0326 30.9093 15.1078 30.7086C15.1831 30.4829 15.3085 30.3073 15.4339 30.1569C15.5843 30.0064 15.7348 29.881 15.9355 29.7807C16.1361 29.6804 16.3367 29.6553 16.5875 29.6553C16.8885 29.6553 17.1393 29.7054 17.3399 29.8308C17.5406 29.9562 17.691 30.1067 17.8164 30.3073C17.9418 30.508 18.0171 30.7086 18.0672 30.9343C18.1174 31.1601 18.1425 31.3858 18.1174 31.5864H15.5593C15.5593 31.7369 15.5843 31.8874 15.6094 32.0128C15.6596 32.1382 15.7097 32.2636 15.8101 32.3639C15.9104 32.4642 16.0107 32.5395 16.1361 32.6147C16.2615 32.6649 16.4371 32.715 16.6126 32.715C16.8383 32.715 17.039 32.6649 17.1895 32.5395C17.3399 32.4391 17.4402 32.2636 17.4904 32.0379H18.0422C17.9669 32.4391 17.8164 32.7401 17.5656 32.9157ZM17.4152 30.7337C17.365 30.6083 17.2898 30.508 17.2145 30.4327C17.1393 30.3575 17.039 30.2823 16.9136 30.2321C16.7882 30.1819 16.6628 30.1569 16.5374 30.1569C16.3869 30.1569 16.2615 30.1819 16.1361 30.2321C16.0107 30.2823 15.9104 30.3575 15.8351 30.4327C15.7599 30.5331 15.6847 30.6334 15.6345 30.7337C15.5843 30.8591 15.5593 30.9845 15.5593 31.1099H17.5155C17.4904 30.9845 17.4653 30.8591 17.4152 30.7337Z" fill="#00309E"/>
<path d="M19.1959 29.7307V30.4581H19.221C19.3464 30.1822 19.522 29.9815 19.7226 29.8561C19.9233 29.7307 20.174 29.6555 20.475 29.6806V30.2825C20.2493 30.2825 20.0486 30.3076 19.8982 30.3828C19.7477 30.433 19.6223 30.5333 19.522 30.6587C19.4217 30.7841 19.3464 30.9095 19.3213 31.0851C19.2712 31.2606 19.2461 31.4613 19.2461 31.6619V33.1667H18.6943V29.7558H19.1959V29.7307Z" fill="#00309E"/>
<path d="M23.1838 32.9157C22.933 33.1163 22.607 33.2166 22.2308 33.2166C21.9549 33.2166 21.7292 33.1665 21.5285 33.0912C21.3279 32.9909 21.1523 32.8906 21.0269 32.715C20.9015 32.5645 20.7761 32.3639 20.726 32.1382C20.6507 31.9125 20.6257 31.6867 20.6006 31.4109C20.6006 31.1601 20.6507 30.9093 20.726 30.7086C20.8012 30.4829 20.9266 30.3073 21.052 30.1569C21.2025 30.0064 21.353 29.881 21.5536 29.7807C21.7543 29.6804 21.9549 29.6553 22.2057 29.6553C22.5067 29.6553 22.7575 29.7054 22.9581 29.8308C23.1587 29.9562 23.3092 30.1067 23.4346 30.3073C23.56 30.508 23.6353 30.7086 23.6854 30.9343C23.7356 31.1601 23.7606 31.3858 23.7356 31.5864H21.1774C21.1774 31.7369 21.2025 31.8874 21.2276 32.0128C21.2777 32.1382 21.3279 32.2636 21.4282 32.3639C21.5285 32.4642 21.6289 32.5395 21.7543 32.6147C21.8797 32.6899 22.0552 32.715 22.2308 32.715C22.4565 32.715 22.6571 32.6649 22.8076 32.5395C22.9581 32.4391 23.0584 32.2636 23.1086 32.0379H23.6603C23.5851 32.4391 23.4346 32.7401 23.1838 32.9157ZM23.0333 30.7337C22.9832 30.6083 22.9079 30.508 22.8327 30.4327C22.7575 30.3575 22.6571 30.2823 22.5317 30.2321C22.4063 30.1819 22.2809 30.1569 22.1555 30.1569C22.0051 30.1569 21.8797 30.1819 21.7543 30.2321C21.6289 30.2823 21.5285 30.3575 21.4533 30.4327C21.3781 30.5331 21.3028 30.6334 21.2527 30.7337C21.2025 30.8591 21.1774 30.9845 21.1774 31.1099H23.1337C23.1086 30.9845 23.0835 30.8591 23.0333 30.7337Z" fill="#00309E"/>
<path d="M24.8138 29.7305V30.2321H24.8389C25.0897 29.8559 25.4659 29.6553 25.9424 29.6553C26.143 29.6553 26.3437 29.7054 26.5192 29.7807C26.6948 29.881 26.8202 30.0064 26.8703 30.2321C26.9957 30.0565 27.1462 29.9061 27.3218 29.8058C27.4973 29.7054 27.7231 29.6553 27.9488 29.6553C28.1243 29.6553 28.2748 29.6804 28.4253 29.7054C28.5758 29.7305 28.6761 29.8058 28.7764 29.881C28.8767 29.9562 28.952 30.0565 29.0021 30.1819C29.0523 30.3073 29.0774 30.4578 29.0774 30.6334V33.1414H28.5256V30.9093C28.5256 30.8089 28.5256 30.7086 28.5005 30.6083C28.4754 30.508 28.4504 30.4327 28.4002 30.3575C28.35 30.2823 28.2748 30.2321 28.1996 30.207C28.1243 30.1569 27.9989 30.1569 27.8735 30.1569C27.5976 30.1569 27.3719 30.2321 27.2215 30.3826C27.071 30.5331 26.9957 30.7588 26.9957 31.0096V33.1414H26.444V30.9093C26.444 30.8089 26.444 30.7086 26.4189 30.6083C26.3938 30.508 26.3687 30.4327 26.3186 30.3575C26.2684 30.2823 26.1932 30.2321 26.1179 30.207C26.0427 30.1819 25.9424 30.1569 25.817 30.1569C25.6665 30.1569 25.516 30.1819 25.3906 30.2572C25.2652 30.3324 25.19 30.4077 25.1147 30.4829C25.0395 30.5832 24.9893 30.6585 24.9643 30.7588C24.9392 30.8591 24.9141 30.9343 24.9141 31.0096V33.1414H24.2871V29.7305H24.8138Z" fill="#00309E"/>
<path d="M29.8568 30.7334C29.9321 30.5077 30.0324 30.3321 30.1829 30.1566C30.3334 30.0061 30.5089 29.8807 30.7096 29.7804C30.9102 29.68 31.161 29.6299 31.4118 29.6299C31.6877 29.6299 31.9134 29.68 32.1391 29.7804C32.3397 29.8807 32.5153 30.0061 32.6658 30.1566C32.8163 30.307 32.9166 30.5077 32.9918 30.7334C33.0671 30.9591 33.0921 31.1848 33.0921 31.4356C33.0921 31.6864 33.0671 31.9122 32.9918 32.1379C32.9166 32.3636 32.8163 32.5391 32.6658 32.6896C32.5153 32.8401 32.3648 32.9655 32.1391 33.0658C31.9385 33.1661 31.6877 33.1912 31.4118 33.1912C31.1359 33.1912 30.9102 33.1411 30.7096 33.0658C30.5089 32.9655 30.3334 32.8401 30.1829 32.6896C30.0324 32.5391 29.9321 32.3385 29.8568 32.1379C29.7816 31.9122 29.7565 31.6864 29.7565 31.4356C29.7314 31.1848 29.7816 30.9591 29.8568 30.7334ZM30.4086 31.9874C30.4588 32.1379 30.534 32.2883 30.6343 32.3887C30.7346 32.489 30.835 32.5893 30.9854 32.6395C31.1108 32.6896 31.2613 32.7147 31.3867 32.7147C31.5121 32.7147 31.6626 32.6896 31.788 32.6395C31.9134 32.5893 32.0388 32.489 32.1391 32.3887C32.2394 32.2883 32.3147 32.1379 32.3648 31.9874C32.415 31.8369 32.4401 31.6363 32.4401 31.4356C32.4401 31.235 32.415 31.0344 32.3648 30.8839C32.3147 30.7334 32.2394 30.5829 32.1391 30.4826C32.0388 30.3823 31.9385 30.282 31.788 30.2318C31.6626 30.1816 31.5121 30.1566 31.3867 30.1566C31.2613 30.1566 31.1108 30.1816 30.9854 30.2318C30.86 30.282 30.7346 30.3823 30.6343 30.4826C30.534 30.5829 30.4588 30.7334 30.4086 30.8839C30.3584 31.0344 30.3334 31.235 30.3334 31.4356C30.3334 31.6363 30.3584 31.8369 30.4086 31.9874Z" fill="#00309E"/>
<path d="M34.1443 32.389C34.1944 32.4642 34.2697 32.5395 34.3449 32.5896C34.4201 32.6398 34.5205 32.6649 34.6459 32.6899C34.7462 32.715 34.8716 32.715 34.9719 32.715C35.0722 32.715 35.1475 32.715 35.2478 32.6899C35.3481 32.6649 35.4233 32.6649 35.5237 32.6147C35.5989 32.5896 35.6741 32.5395 35.7243 32.4642C35.7745 32.389 35.7995 32.3137 35.7995 32.2134C35.7995 32.0629 35.7494 31.9626 35.624 31.8874C35.5237 31.8121 35.3732 31.762 35.2227 31.7118C35.0471 31.6617 34.8716 31.6115 34.696 31.5864C34.4954 31.5613 34.3198 31.4861 34.1693 31.4359C33.9938 31.3607 33.8684 31.2604 33.7681 31.1601C33.6677 31.0347 33.5925 30.8591 33.5925 30.6334C33.5925 30.4578 33.6427 30.3073 33.7179 30.1819C33.7931 30.0565 33.8935 29.9562 34.0189 29.881C34.1443 29.8058 34.2697 29.7556 34.4201 29.7054C34.5706 29.6804 34.7211 29.6553 34.8716 29.6553C35.0722 29.6553 35.2478 29.6804 35.3983 29.7054C35.5487 29.7305 35.6992 29.8058 35.8246 29.881C35.95 29.9562 36.0503 30.0816 36.1256 30.207C36.2008 30.3575 36.251 30.508 36.251 30.7337H35.6992C35.6992 30.6334 35.6741 30.5331 35.624 30.4578C35.5738 30.3826 35.5237 30.3324 35.4484 30.2823C35.3732 30.2321 35.2979 30.207 35.1976 30.1819C35.0973 30.1569 35.0221 30.1569 34.9217 30.1569C34.8465 30.1569 34.7462 30.1569 34.6709 30.1819C34.5957 30.207 34.4954 30.207 34.4452 30.2572C34.37 30.2823 34.3198 30.3324 34.2697 30.3826C34.2195 30.4327 34.1944 30.508 34.1944 30.6083C34.1944 30.7086 34.2195 30.7839 34.2947 30.8591C34.37 30.9343 34.4452 30.9845 34.5455 31.0096C34.6459 31.0597 34.7713 31.0848 34.8967 31.1099C35.0221 31.135 35.1725 31.1601 35.2979 31.2102C35.4484 31.2353 35.5738 31.2855 35.6992 31.3105C35.8246 31.3607 35.95 31.4109 36.0503 31.4861C36.1506 31.5613 36.2259 31.6617 36.3011 31.762C36.3764 31.8623 36.4014 32.0128 36.4014 32.1633C36.4014 32.3639 36.3513 32.5395 36.276 32.6899C36.2008 32.8153 36.0754 32.9407 35.95 33.016C35.7995 33.0912 35.6491 33.1665 35.4735 33.1915C35.2979 33.2166 35.1224 33.2417 34.9468 33.2417C34.7462 33.2417 34.5706 33.2166 34.3951 33.1915C34.2195 33.1414 34.069 33.0912 33.9436 32.9909C33.8182 32.8906 33.7179 32.7903 33.6176 32.6398C33.5423 32.4893 33.4922 32.3137 33.4922 32.1131H34.0439C34.0439 32.1883 34.0941 32.2887 34.1443 32.389Z" fill="#00309E"/>
<path d="M39.7618 33.1413L38.5078 29.7305H39.1348L40.0878 32.5645H40.1129L41.0409 29.7305H41.6177L40.3637 33.1413H39.7618Z" fill="#00309E"/>
<path d="M44.552 32.9157C44.3012 33.1163 43.9751 33.2166 43.5989 33.2166C43.3231 33.2166 43.0973 33.1665 42.8967 33.0912C42.6961 32.9909 42.5205 32.8906 42.3951 32.715C42.2697 32.5645 42.1443 32.3639 42.0941 32.1382C42.0189 31.9125 41.9938 31.6867 41.9688 31.4109C41.9688 31.1601 42.0189 30.9093 42.0941 30.7086C42.1694 30.4829 42.2948 30.3073 42.4202 30.1569C42.5707 30.0064 42.7211 29.881 42.9218 29.7807C43.1224 29.6804 43.3231 29.6553 43.5739 29.6553C43.8748 29.6553 44.1256 29.7054 44.3263 29.8308C44.5269 29.9562 44.6774 30.1067 44.8028 30.3073C44.9282 30.508 45.0034 30.7086 45.0536 30.9343C45.1037 31.1601 45.1288 31.3858 45.1037 31.5864H42.5456C42.5456 31.7369 42.5707 31.8874 42.5957 32.0128C42.6459 32.1382 42.6961 32.2636 42.7964 32.3639C42.8967 32.4642 42.997 32.5395 43.1224 32.6147C43.2478 32.6649 43.4234 32.715 43.5989 32.715C43.8247 32.715 44.0253 32.6649 44.1758 32.5395C44.3263 32.4391 44.4266 32.2636 44.4767 32.0379H45.0285C44.9533 32.4391 44.8028 32.7401 44.552 32.9157ZM44.4015 30.7337C44.3513 30.6083 44.2761 30.508 44.2009 30.4327C44.1256 30.3575 44.0253 30.2823 43.8999 30.2321C43.7745 30.1819 43.6491 30.1569 43.5237 30.1569C43.3732 30.1569 43.2478 30.1819 43.1224 30.2321C42.997 30.2823 42.8967 30.3575 42.8215 30.4327C42.7462 30.5331 42.671 30.6334 42.6208 30.7337C42.5707 30.8591 42.5456 30.9845 42.5456 31.1099H44.5018C44.4767 30.9845 44.4517 30.8591 44.4015 30.7337Z" fill="#00309E"/>
<path d="M46.1813 29.7307V30.4581H46.2064C46.3318 30.1822 46.5073 29.9815 46.708 29.8561C46.9086 29.7307 47.1594 29.6555 47.4604 29.6806V30.2825C47.2346 30.2825 47.034 30.3076 46.8835 30.3828C46.733 30.433 46.6076 30.5333 46.5073 30.6587C46.407 30.7841 46.3318 30.9095 46.3067 31.0851C46.2565 31.2606 46.2314 31.4613 46.2314 31.6619V33.1667H45.6797V29.7558H46.1813V29.7307Z" fill="#00309E"/>
<path d="M49.3172 29.7317V30.2333H48.64V32.34C48.64 32.4153 48.64 32.4654 48.6651 32.4905C48.6651 32.5407 48.6902 32.5657 48.7152 32.5908C48.7403 32.6159 48.7905 32.6159 48.8406 32.641C48.8908 32.641 48.966 32.641 49.0664 32.641H49.3172V33.1426H48.8908C48.7403 33.1426 48.6149 33.1426 48.5146 33.1175C48.4143 33.0924 48.339 33.0673 48.2638 33.0172C48.1886 32.967 48.1635 32.8918 48.1133 32.7915C48.0882 32.6911 48.0632 32.5657 48.0632 32.4153V30.2584H47.4863V29.7568H48.0632V28.7285H48.6149V29.7568H49.3172V29.7317Z" fill="#00309E"/>
<path d="M52.3518 32.9157C52.101 33.1163 51.7749 33.2166 51.3987 33.2166C51.1229 33.2166 50.8971 33.1665 50.6965 33.0912C50.4959 32.9909 50.3203 32.8906 50.1949 32.715C50.0695 32.5645 49.9441 32.3639 49.894 32.1382C49.8187 31.9125 49.7936 31.6867 49.7686 31.4109C49.7686 31.1601 49.8187 30.9093 49.894 30.7086C49.9692 30.4829 50.0946 30.3073 50.22 30.1569C50.3705 30.0064 50.5209 29.881 50.7216 29.7807C50.9222 29.6804 51.1229 29.6553 51.3737 29.6553C51.6746 29.6553 51.9254 29.7054 52.1261 29.8308C52.3267 29.9562 52.4772 30.1067 52.6026 30.3073C52.728 30.508 52.8032 30.7086 52.8534 30.9343C52.9035 31.1601 52.9286 31.3858 52.9035 31.5864H50.3454C50.3454 31.7369 50.3705 31.8874 50.3956 32.0128C50.4457 32.1382 50.4959 32.2636 50.5962 32.3639C50.6965 32.4642 50.7968 32.5395 50.9222 32.6147C51.0476 32.6649 51.2232 32.715 51.3987 32.715C51.6245 32.715 51.8251 32.6649 51.9756 32.5395C52.1261 32.4391 52.2264 32.2636 52.2765 32.0379H52.8283C52.7781 32.4391 52.6026 32.7401 52.3518 32.9157ZM52.2264 30.7337C52.1762 30.6083 52.101 30.508 52.0257 30.4327C51.9505 30.3575 51.8502 30.2823 51.7248 30.2321C51.5994 30.1819 51.474 30.1569 51.3486 30.1569C51.1981 30.1569 51.0727 30.1819 50.9473 30.2321C50.8219 30.2823 50.7216 30.3575 50.6463 30.4327C50.5711 30.5331 50.4959 30.6334 50.4457 30.7337C50.3955 30.8591 50.3705 30.9845 50.3705 31.1099H52.3267C52.3016 30.9845 52.2765 30.8591 52.2264 30.7337Z" fill="#00309E"/>
<path d="M54.9609 30.2329V29.7313H55.5378V29.2297C55.5378 28.9538 55.613 28.7531 55.7886 28.6027C55.9391 28.4522 56.1899 28.377 56.4908 28.377C56.541 28.377 56.6162 28.377 56.6664 28.402C56.7416 28.402 56.7918 28.4271 56.8419 28.4522V28.9287C56.7918 28.9036 56.7416 28.9036 56.6915 28.9036C56.6413 28.9036 56.5911 28.9036 56.541 28.9036C56.4156 28.9036 56.2902 28.9287 56.2149 28.9789C56.1397 29.029 56.1146 29.1294 56.1146 29.2798V29.7563H56.7667V30.2579H56.1146V33.1421H55.5629V30.2329H54.9609Z" fill="#00309E"/>
<path d="M59.675 32.9157C59.4242 33.1163 59.0982 33.2166 58.722 33.2166C58.4461 33.2166 58.2204 33.1665 58.0198 33.0912C57.8191 32.9909 57.6436 32.8906 57.5182 32.715C57.3928 32.5645 57.2674 32.3639 57.2172 32.1382C57.142 31.9125 57.1169 31.6867 57.0918 31.4109C57.0918 31.1601 57.142 30.9093 57.2172 30.7086C57.2924 30.4829 57.4178 30.3073 57.5432 30.1569C57.6937 30.0064 57.8442 29.881 58.0448 29.7807C58.2455 29.6804 58.4461 29.6553 58.6969 29.6553C58.9979 29.6553 59.2487 29.7054 59.4493 29.8308C59.6499 29.9562 59.8004 30.1067 59.9258 30.3073C60.0512 30.508 60.1265 30.7086 60.1766 30.9343C60.2268 31.1601 60.2519 31.3858 60.2268 31.5864H57.6686C57.6686 31.7369 57.6937 31.8874 57.7188 32.0128C57.769 32.1382 57.8191 32.2636 57.9194 32.3639C58.0198 32.4642 58.1201 32.5395 58.2455 32.6147C58.3709 32.6649 58.5464 32.715 58.722 32.715C58.9477 32.715 59.1484 32.6649 59.2988 32.5395C59.4493 32.4391 59.5496 32.2636 59.5998 32.0379H60.1515C60.1014 32.4391 59.9258 32.7401 59.675 32.9157ZM59.5496 30.7337C59.4995 30.6083 59.4242 30.508 59.349 30.4327C59.2737 30.3575 59.1734 30.2823 59.048 30.2321C58.9226 30.1819 58.7972 30.1569 58.6718 30.1569C58.5214 30.1569 58.396 30.1819 58.2706 30.2321C58.1452 30.2823 58.0448 30.3575 57.9696 30.4327C57.8944 30.5331 57.8191 30.6334 57.769 30.7337C57.7188 30.8591 57.6937 30.9845 57.6937 31.1099H59.6499C59.6249 30.9845 59.5998 30.8591 59.5496 30.7337Z" fill="#00309E"/>
<path d="M61.4063 28.4277V33.1427H60.8545V28.4277H61.4063Z" fill="#00309E"/>
<path d="M62.3086 29.1293V28.4521H62.8603V29.1293H62.3086ZM62.8603 29.7312V33.1421H62.3086V29.7312H62.8603Z" fill="#00309E"/>
<path d="M65.5194 30.2321H63.5883V29.7305H66.2467V30.1067L64.1651 32.6397H66.3471V33.1413H63.4629V32.715L65.5194 30.2321Z" fill="#00309E"/>
</g>
</g>
<defs>
<clipPath id="clip0_2168_10909">
<rect width="69" height="34.2058" fill="white" transform="translate(0 0.264648)"/>
</clipPath>
<clipPath id="clip1_2168_10909">
<rect width="69" height="34.2058" fill="white" transform="translate(0 0.264648)"/>
</clipPath>
</defs>
</svg>
